<?xml version="1.0" encoding="utf-8"?>
<svg width="50px" height="50px" viewBox="0 0 1024 1024" class="icon"  version="1.1" xmlns="http://www.w3.org/2000/svg"><path d="M885.76 785.92H138.24c-18.432 0-33.28-14.848-33.28-33.28V394.24c0-18.432 14.848-33.28 33.28-33.28h747.52c18.432 0 33.28 14.848 33.28 33.28v358.4c0 18.432-14.848 33.28-33.28 33.28z m-747.52-409.6c-9.728 0-17.92 8.192-17.92 17.92v358.4c0 9.728 8.192 17.92 17.92 17.92h747.52c9.728 0 17.92-8.192 17.92-17.92V394.24c0-9.728-8.192-17.92-17.92-17.92H138.24z" fill="" /><path d="M117.76 819.2h788.48c3.072 0 5.12 2.048 5.12 5.12v30.72c0 3.072-2.048 5.12-5.12 5.12H117.76c-3.072 0-5.12-2.048-5.12-5.12v-30.72c0-3.072 2.048-5.12 5.12-5.12z" fill="#7ED321" /><path d="M906.24 867.84H117.76c-7.168 0-12.8-5.632-12.8-12.8v-30.72c0-7.168 5.632-12.8 12.8-12.8h788.48c7.168 0 12.8 5.632 12.8 12.8v30.72c0 7.168-5.632 12.8-12.8 12.8z m-785.92-15.36h783.36v-25.6h-783.36v25.6z m785.92-25.6z" fill="" /><path d="M604.16 768.512h52.736l-34.304-398.848c44.544-23.552 73.216-60.928 73.216-102.4 0-71.168-82.432-128.512-184.32-128.512s-184.32 57.344-184.32 128.512c0 41.984 28.672 78.848 73.216 102.4l-34.304 398.848h52.736L454.144 322.56h-37.888c-18.432-14.848-29.696-34.304-29.696-55.808 0-47.104 55.808-85.504 124.416-85.504s124.416 38.4 124.416 85.504c0 21.504-11.264 40.96-29.696 55.808h-37.888l36.352 445.952z" fill="#7ED321" /></svg>